<svg width="635" height="181" viewBox="0 0 635 181" fill="none" xmlns="http://www.w3.org/2000/svg">
<g filter="url(#filter0_d_38_74)">
<rect x="4.5" y="6.5" width="282" height="63" rx="9.5" stroke="#132E77" shape-rendering="crispEdges"/>
</g>
<g filter="url(#filter1_d_38_74)">
<path d="M44.834 37.9873V25.7998C44.834 25.2627 45.0781 24.9941 45.5664 24.9941H46.9141C47.4023 24.9941 47.6465 25.2627 47.6465 25.7998V37.5479C47.6465 40.2822 48.0322 42.0693 48.8037 42.9092C49.585 43.7393 50.8545 44.1543 52.6123 44.1543C54.3701 44.1543 55.6348 43.7393 56.4062 42.9092C57.1875 42.0693 57.5781 40.2822 57.5781 37.5479V25.7998C57.5781 25.2627 57.8223 24.9941 58.3105 24.9941H59.6582C60.1465 24.9941 60.3906 25.2627 60.3906 25.7998V37.9873C60.3906 41.083 59.6777 43.2656 58.252 44.5352C56.8359 45.8047 54.9561 46.4395 52.6123 46.4395C50.2686 46.4395 48.3838 45.8047 46.958 44.5352C45.542 43.2656 44.834 41.083 44.834 37.9873ZM66.1035 46C65.6152 46 65.3711 45.7314 65.3711 45.1943V25.7998C65.3711 25.2627 65.6152 24.9941 66.1035 24.9941H67.4512C67.9395 24.9941 68.1836 25.2627 68.1836 25.7998V45.1943C68.1836 45.7314 67.9395 46 67.4512 46H66.1035ZM83.1543 37.9873V25.7998C83.1543 25.2627 83.3984 24.9941 83.8867 24.9941H85.2344C85.7227 24.9941 85.9668 25.2627 85.9668 25.7998V37.5479C85.9668 40.2822 86.3525 42.0693 87.124 42.9092C87.9053 43.7393 89.1748 44.1543 90.9326 44.1543C92.6904 44.1543 93.9551 43.7393 94.7266 42.9092C95.5078 42.0693 95.8984 40.2822 95.8984 37.5479V25.7998C95.8984 25.2627 96.1426 24.9941 96.6309 24.9941H97.9785C98.4668 24.9941 98.7109 25.2627 98.7109 25.7998V37.9873C98.7109 41.083 97.998 43.2656 96.5723 44.5352C95.1562 45.8047 93.2764 46.4395 90.9326 46.4395C88.5889 46.4395 86.7041 45.8047 85.2783 44.5352C83.8623 43.2656 83.1543 41.083 83.1543 37.9873ZM103.018 46C102.383 46 102.295 45.6777 102.754 45.0332L109.785 35.1602L103.252 25.9609C102.793 25.3164 102.881 24.9941 103.516 24.9941H105.317C105.747 24.9941 106.089 25.1846 106.343 25.5654L111.484 33.2119L116.626 25.5654C116.88 25.1846 117.222 24.9941 117.651 24.9941H119.453C120.088 24.9941 120.176 25.3164 119.717 25.9609L113.184 35.1602L120.215 45.0332C120.674 45.6777 120.586 46 119.951 46H118.135C117.705 46 117.363 45.8096 117.109 45.4287L111.484 37.1084L105.859 45.4287C105.605 45.8096 105.264 46 104.834 46H103.018ZM133.604 46C133.115 46 132.871 45.7314 132.871 45.1943V25.7998C132.871 25.2627 133.115 24.9941 133.604 24.9941H139.009C143.149 24.9941 146.025 25.9121 147.637 27.748C149.258 29.5742 150.068 32.1475 150.068 35.4678C150.068 38.7881 149.258 41.376 147.637 43.2314C146.025 45.0771 143.149 46 139.009 46H133.604ZM135.684 43.5977H138.877C142.1 43.5977 144.268 42.9141 145.381 41.5469C146.504 40.1797 147.065 38.1533 147.065 35.4678C147.065 32.7822 146.504 30.7607 145.381 29.4033C144.268 28.0459 142.1 27.3672 138.877 27.3672H135.684V43.5977ZM152.661 38.3096C152.661 35.8877 153.267 33.959 154.478 32.5234C155.688 31.0879 157.422 30.3701 159.678 30.3701C161.553 30.3701 163.105 31.0293 164.336 32.3477C165.576 33.6562 166.196 35.751 166.196 38.6318C166.196 39.0713 165.996 39.291 165.596 39.291H155.386C155.552 41.1758 156.06 42.4893 156.909 43.2314C157.759 43.9639 158.721 44.3301 159.795 44.3301C160.928 44.3301 161.797 44.1396 162.402 43.7588C163.008 43.3779 163.452 43.002 163.735 42.6309C164.048 42.2207 164.351 42.1426 164.644 42.3965L165.508 43.1436C165.732 43.3389 165.732 43.6074 165.508 43.9492C165.322 44.2324 164.79 44.6865 163.911 45.3115C163.042 45.9365 161.67 46.249 159.795 46.249C157.354 46.249 155.552 45.5312 154.39 44.0957C153.237 42.6602 152.661 40.7314 152.661 38.3096ZM155.327 37.3867H163.604C163.564 36.0195 163.213 34.8232 162.549 33.7979C161.885 32.7627 160.908 32.2451 159.619 32.2451C158.486 32.2451 157.524 32.626 156.733 33.3877C155.942 34.1396 155.474 35.4727 155.327 37.3867ZM168.979 44.5645C168.677 44.2812 168.613 44.0176 168.789 43.7734L169.448 42.8506C169.663 42.5576 169.98 42.5723 170.4 42.8945C170.977 43.334 171.616 43.6855 172.319 43.9492C173.032 44.2129 173.843 44.3447 174.751 44.3447C175.288 44.3447 175.767 44.2812 176.187 44.1543C176.606 44.0176 176.973 43.7686 177.285 43.4072C177.607 43.0459 177.769 42.5625 177.769 41.957C177.769 41.6055 177.69 41.2734 177.534 40.9609C177.388 40.6484 177.153 40.3994 176.831 40.2139C176.519 40.0186 176.211 39.8672 175.908 39.7598C175.41 39.5742 174.912 39.4229 174.414 39.3057C173.926 39.1787 173.281 38.9883 172.48 38.7344C171.943 38.5684 171.436 38.334 170.957 38.0312C170.479 37.7188 170.059 37.2988 169.697 36.7715C169.346 36.2441 169.17 35.5166 169.17 34.5889C169.17 33.6416 169.458 32.8262 170.034 32.1426C170.61 31.459 171.333 30.9951 172.202 30.751C173.071 30.4971 173.916 30.3701 174.736 30.3701C175.947 30.3701 176.919 30.5117 177.651 30.7949C178.394 31.0684 179.033 31.3955 179.57 31.7764C179.883 32.001 179.927 32.2598 179.702 32.5527L179.043 33.4316C178.838 33.7148 178.521 33.7051 178.091 33.4023C177.729 33.1484 177.217 32.9092 176.553 32.6846C175.889 32.46 175.308 32.3477 174.81 32.3477C174.194 32.3477 173.667 32.416 173.228 32.5527C172.788 32.6895 172.432 32.9238 172.158 33.2559C171.885 33.5879 171.748 33.9785 171.748 34.4277C171.748 34.7695 171.802 35.0771 171.909 35.3506C172.017 35.6143 172.217 35.8584 172.51 36.083C172.803 36.3076 173.213 36.4883 173.74 36.625C174.561 36.8398 175.308 37.0352 175.981 37.2109C176.665 37.3867 177.28 37.6016 177.827 37.8555C178.54 38.1875 179.087 38.5537 179.468 38.9541C179.858 39.3545 180.127 39.7891 180.273 40.2578C180.42 40.7168 180.493 41.2295 180.493 41.7959C180.493 42.8408 180.181 43.7246 179.556 44.4473C178.94 45.1699 178.252 45.6533 177.49 45.8975C176.729 46.1318 175.811 46.249 174.736 46.249C173.281 46.249 172.031 46.0439 170.986 45.6338C169.951 45.2139 169.282 44.8574 168.979 44.5645ZM184.067 46C183.628 46 183.408 45.7803 183.408 45.3408V31.2783C183.408 30.8389 183.628 30.6191 184.067 30.6191H185.327C185.767 30.6191 185.986 30.8389 185.986 31.2783V45.3408C185.986 45.7803 185.767 46 185.327 46H184.067ZM184.067 27.8359C183.628 27.8359 183.408 27.6162 183.408 27.1768V25.917C183.408 25.4775 183.628 25.2578 184.067 25.2578H185.327C185.767 25.2578 185.986 25.4775 185.986 25.917V27.1768C185.986 27.6162 185.767 27.8359 185.327 27.8359H184.067ZM189.312 38.3096C189.312 36.21 189.819 34.3643 190.835 32.7725C191.851 31.1709 193.335 30.3701 195.288 30.3701C196.411 30.3701 197.31 30.5557 197.983 30.9268C198.657 31.2979 199.263 31.8057 199.8 32.4502H199.829L199.917 31.2783C199.946 30.8389 200.137 30.6191 200.488 30.6191H201.719C202.158 30.6191 202.378 30.8389 202.378 31.2783V46.1172C202.378 47.9922 201.943 49.457 201.074 50.5117C200.215 51.5762 198.511 52.1084 195.962 52.1084C194.253 52.1084 192.974 51.9131 192.124 51.5225C191.274 51.1416 190.669 50.7363 190.308 50.3066C190.044 49.9844 190.029 49.7109 190.264 49.4863L191.069 48.6953C191.294 48.4805 191.606 48.5488 192.007 48.9004C192.524 49.3691 193.022 49.7012 193.501 49.8965C193.979 50.1016 194.805 50.2041 195.977 50.2041C197.305 50.2041 198.271 49.9209 198.877 49.3545C199.492 48.7881 199.8 47.6162 199.8 45.8389V44.96C199.8 44.6572 199.81 44.3594 199.829 44.0664H199.8C199.292 44.7402 198.691 45.2725 197.998 45.6631C197.314 46.0537 196.411 46.249 195.288 46.249C193.335 46.249 191.851 45.4531 190.835 43.8613C189.819 42.2598 189.312 40.4092 189.312 38.3096ZM192.036 38.3096C192.036 40.1064 192.344 41.5615 192.959 42.6748C193.584 43.7881 194.639 44.3447 196.123 44.3447C197.178 44.3447 198.052 43.9883 198.745 43.2754C199.448 42.5527 199.8 41.459 199.8 39.9941V36.625C199.8 35.1602 199.448 34.0713 198.745 33.3584C198.052 32.6357 197.178 32.2744 196.123 32.2744C194.639 32.2744 193.584 32.8311 192.959 33.9443C192.344 35.0576 192.036 36.5127 192.036 38.3096ZM207.212 46C206.772 46 206.553 45.7803 206.553 45.3408V31.2783C206.553 30.8389 206.772 30.6191 207.212 30.6191H208.442C208.882 30.6191 209.102 30.8389 209.102 31.2783V32.4502H209.16C209.795 31.7471 210.479 31.2246 211.211 30.8828C211.943 30.541 212.856 30.3701 213.95 30.3701C215.728 30.3701 217.002 30.873 217.773 31.8789C218.555 32.875 218.945 34.2422 218.945 35.9805V45.3408C218.945 45.7803 218.726 46 218.286 46H217.026C216.587 46 216.367 45.7803 216.367 45.3408V36.6836C216.367 34.7695 216.05 33.5586 215.415 33.0508C214.78 32.5332 213.975 32.2744 212.998 32.2744C211.729 32.2744 210.767 32.6553 210.112 33.417C209.458 34.1689 209.131 35.4629 209.131 37.2988V45.3408C209.131 45.7803 208.911 46 208.472 46H207.212ZM222.241 38.3096C222.241 35.8877 222.847 33.959 224.058 32.5234C225.269 31.0879 227.002 30.3701 229.258 30.3701C231.133 30.3701 232.686 31.0293 233.916 32.3477C235.156 33.6562 235.776 35.751 235.776 38.6318C235.776 39.0713 235.576 39.291 235.176 39.291H224.966C225.132 41.1758 225.64 42.4893 226.489 43.2314C227.339 43.9639 228.301 44.3301 229.375 44.3301C230.508 44.3301 231.377 44.1396 231.982 43.7588C232.588 43.3779 233.032 43.002 233.315 42.6309C233.628 42.2207 233.931 42.1426 234.224 42.3965L235.088 43.1436C235.312 43.3389 235.312 43.6074 235.088 43.9492C234.902 44.2324 234.37 44.6865 233.491 45.3115C232.622 45.9365 231.25 46.249 229.375 46.249C226.934 46.249 225.132 45.5312 223.97 44.0957C222.817 42.6602 222.241 40.7314 222.241 38.3096ZM224.907 37.3867H233.184C233.145 36.0195 232.793 34.8232 232.129 33.7979C231.465 32.7627 230.488 32.2451 229.199 32.2451C228.066 32.2451 227.104 32.626 226.313 33.3877C225.522 34.1396 225.054 35.4727 224.907 37.3867ZM239.819 46C239.38 46 239.16 45.7803 239.16 45.3408V31.2783C239.16 30.8389 239.38 30.6191 239.819 30.6191H241.05C241.489 30.6191 241.709 30.8389 241.709 31.2783V33.0361H241.768C242.236 32.1572 242.788 31.4932 243.423 31.0439C244.058 30.5947 244.849 30.3701 245.796 30.3701C246.421 30.3701 246.86 30.4238 247.114 30.5312C247.339 30.6191 247.422 30.7656 247.363 30.9707L247.026 32.1719C246.978 32.3477 246.851 32.416 246.646 32.377C246.304 32.3086 245.981 32.2744 245.679 32.2744C244.536 32.2744 243.594 32.792 242.852 33.8271C242.109 34.8525 241.738 36.2539 241.738 38.0312V45.3408C241.738 45.7803 241.519 46 241.079 46H239.819Z" fill="#2D9596"/>
</g>
<g filter="url(#filter2_d_38_74)">
<rect x="343.5" y="5.5" width="282" height="63" rx="9.5" stroke="#132E77" shape-rendering="crispEdges"/>
</g>
<g filter="url(#filter3_d_38_74)">
<path d="M383.235 25.873C383.079 25.2871 383.206 24.9941 383.616 24.9941H385.403C385.716 24.9941 385.926 25.2188 386.033 25.668L389.3 39.7451C389.437 40.3115 389.588 40.9268 389.754 41.5908C389.93 42.2549 390.081 42.8799 390.208 43.4658H390.281C390.379 42.8896 390.491 42.3184 390.618 41.752C390.755 41.1855 390.906 40.5215 391.072 39.7598L394.412 25.7852C394.539 25.2578 394.852 24.9941 395.35 24.9941H397.371C397.869 24.9941 398.182 25.2578 398.309 25.7852L401.648 39.7598C401.814 40.5215 401.961 41.1855 402.088 41.752C402.225 42.3184 402.342 42.8896 402.439 43.4658H402.513C402.64 42.8799 402.786 42.2549 402.952 41.5908C403.128 40.9268 403.284 40.3115 403.421 39.7451L406.688 25.668C406.795 25.2188 407.005 24.9941 407.317 24.9941H409.104C409.515 24.9941 409.642 25.2871 409.485 25.873L404.446 44.8721C404.251 45.624 403.89 46 403.362 46H401.531C401.043 46 400.696 45.5898 400.491 44.7695L396.961 30.7217C396.785 30.0088 396.658 29.4277 396.58 28.9785C396.502 28.5195 396.434 28.0459 396.375 27.5576H396.346C396.287 28.0459 396.219 28.5195 396.141 28.9785C396.062 29.4277 395.936 30.0088 395.76 30.7217L392.229 44.7695C392.024 45.5898 391.678 46 391.189 46H389.358C388.831 46 388.47 45.624 388.274 44.8721L383.235 25.873ZM411.199 38.3096C411.199 35.8877 411.805 33.959 413.016 32.5234C414.227 31.0879 415.96 30.3701 418.216 30.3701C420.091 30.3701 421.644 31.0293 422.874 32.3477C424.114 33.6562 424.734 35.751 424.734 38.6318C424.734 39.0713 424.534 39.291 424.134 39.291H413.924C414.09 41.1758 414.598 42.4893 415.447 43.2314C416.297 43.9639 417.259 44.3301 418.333 44.3301C419.466 44.3301 420.335 44.1396 420.94 43.7588C421.546 43.3779 421.99 43.002 422.273 42.6309C422.586 42.2207 422.889 42.1426 423.182 42.3965L424.046 43.1436C424.271 43.3389 424.271 43.6074 424.046 43.9492C423.86 44.2324 423.328 44.6865 422.449 45.3115C421.58 45.9365 420.208 46.249 418.333 46.249C415.892 46.249 414.09 45.5312 412.928 44.0957C411.775 42.6602 411.199 40.7314 411.199 38.3096ZM413.865 37.3867H422.142C422.103 36.0195 421.751 34.8232 421.087 33.7979C420.423 32.7627 419.446 32.2451 418.157 32.2451C417.024 32.2451 416.062 32.626 415.271 33.3877C414.48 34.1396 414.012 35.4727 413.865 37.3867ZM428.777 46C428.338 46 428.118 45.7803 428.118 45.3408V25.0381C428.118 24.5986 428.338 24.3789 428.777 24.3789H430.037C430.477 24.3789 430.696 24.5986 430.696 25.0381V31.5566C430.696 31.8594 430.687 32.1572 430.667 32.4502H430.696C431.233 31.8057 431.839 31.2979 432.513 30.9268C433.187 30.5557 434.085 30.3701 435.208 30.3701C437.161 30.3701 438.646 31.1709 439.661 32.7725C440.677 34.3643 441.185 36.21 441.185 38.3096C441.185 40.4092 440.677 42.2598 439.661 43.8613C438.646 45.4531 437.161 46.249 435.208 46.249C434.085 46.249 433.187 46.0635 432.513 45.6924C431.839 45.3213 431.233 44.8135 430.696 44.1689H430.667L430.579 45.3408C430.55 45.7803 430.359 46 430.008 46H428.777ZM430.696 39.9941C430.696 41.459 431.043 42.5527 431.736 43.2754C432.439 43.9883 433.318 44.3447 434.373 44.3447C435.857 44.3447 436.907 43.7881 437.522 42.6748C438.147 41.5615 438.46 40.1064 438.46 38.3096C438.46 36.5127 438.147 35.0576 437.522 33.9443C436.907 32.8311 435.857 32.2744 434.373 32.2744C433.318 32.2744 432.439 32.6357 431.736 33.3584C431.043 34.0713 430.696 35.1602 430.696 36.625V39.9941ZM455.657 46C455.169 46 454.925 45.7314 454.925 45.1943V25.7998C454.925 25.2627 455.169 24.9941 455.657 24.9941H461.062C465.203 24.9941 468.079 25.9121 469.69 27.748C471.312 29.5742 472.122 32.1475 472.122 35.4678C472.122 38.7881 471.312 41.376 469.69 43.2314C468.079 45.0771 465.203 46 461.062 46H455.657ZM457.737 43.5977H460.931C464.153 43.5977 466.321 42.9141 467.435 41.5469C468.558 40.1797 469.119 38.1533 469.119 35.4678C469.119 32.7822 468.558 30.7607 467.435 29.4033C466.321 28.0459 464.153 27.3672 460.931 27.3672H457.737V43.5977ZM474.715 38.3096C474.715 35.8877 475.32 33.959 476.531 32.5234C477.742 31.0879 479.476 30.3701 481.731 30.3701C483.606 30.3701 485.159 31.0293 486.39 32.3477C487.63 33.6562 488.25 35.751 488.25 38.6318C488.25 39.0713 488.05 39.291 487.649 39.291H477.439C477.605 41.1758 478.113 42.4893 478.963 43.2314C479.812 43.9639 480.774 44.3301 481.849 44.3301C482.981 44.3301 483.851 44.1396 484.456 43.7588C485.062 43.3779 485.506 43.002 485.789 42.6309C486.102 42.2207 486.404 42.1426 486.697 42.3965L487.562 43.1436C487.786 43.3389 487.786 43.6074 487.562 43.9492C487.376 44.2324 486.844 44.6865 485.965 45.3115C485.096 45.9365 483.724 46.249 481.849 46.249C479.407 46.249 477.605 45.5312 476.443 44.0957C475.291 42.6602 474.715 40.7314 474.715 38.3096ZM477.381 37.3867H485.657C485.618 36.0195 485.267 34.8232 484.603 33.7979C483.938 32.7627 482.962 32.2451 481.673 32.2451C480.54 32.2451 479.578 32.626 478.787 33.3877C477.996 34.1396 477.527 35.4727 477.381 37.3867ZM490.462 31.3369C490.296 30.8584 490.428 30.6191 490.857 30.6191H492.454C492.767 30.6191 492.986 30.8096 493.113 31.1904L496.219 40.8584C496.473 41.6494 496.644 42.1963 496.731 42.499C496.829 42.792 496.917 43.1582 496.995 43.5977H497.054C497.132 43.1582 497.215 42.792 497.303 42.499C497.4 42.1963 497.576 41.6494 497.83 40.8584L500.936 31.1904C501.062 30.8096 501.282 30.6191 501.595 30.6191H503.191C503.621 30.6191 503.753 30.8584 503.587 31.3369L498.782 45.1064C498.577 45.7021 498.313 46 497.991 46H496.058C495.735 46 495.472 45.7021 495.267 45.1064L490.462 31.3369ZM505.242 38.3096C505.242 35.8877 505.848 33.959 507.059 32.5234C508.27 31.0879 510.003 30.3701 512.259 30.3701C514.134 30.3701 515.687 31.0293 516.917 32.3477C518.157 33.6562 518.777 35.751 518.777 38.6318C518.777 39.0713 518.577 39.291 518.177 39.291H507.967C508.133 41.1758 508.641 42.4893 509.49 43.2314C510.34 43.9639 511.302 44.3301 512.376 44.3301C513.509 44.3301 514.378 44.1396 514.983 43.7588C515.589 43.3779 516.033 43.002 516.316 42.6309C516.629 42.2207 516.932 42.1426 517.225 42.3965L518.089 43.1436C518.313 43.3389 518.313 43.6074 518.089 43.9492C517.903 44.2324 517.371 44.6865 516.492 45.3115C515.623 45.9365 514.251 46.249 512.376 46.249C509.935 46.249 508.133 45.5312 506.971 44.0957C505.818 42.6602 505.242 40.7314 505.242 38.3096ZM507.908 37.3867H516.185C516.146 36.0195 515.794 34.8232 515.13 33.7979C514.466 32.7627 513.489 32.2451 512.2 32.2451C511.067 32.2451 510.105 32.626 509.314 33.3877C508.523 34.1396 508.055 35.4727 507.908 37.3867ZM522.82 46C522.381 46 522.161 45.7803 522.161 45.3408V27.0596C522.161 26.8643 522.21 26.6787 522.308 26.5029L523.333 24.6426C523.519 24.3008 523.67 24.1299 523.787 24.1299H524.3C524.593 24.1299 524.739 24.3008 524.739 24.6426V45.3408C524.739 45.7803 524.52 46 524.08 46H522.82ZM528.064 38.3096C528.064 36.0146 528.67 34.1201 529.881 32.626C531.102 31.1221 532.884 30.3701 535.228 30.3701C537.571 30.3701 539.349 31.1221 540.56 32.626C541.78 34.1201 542.391 36.0146 542.391 38.3096C542.391 40.6045 541.78 42.5039 540.56 44.0078C539.349 45.502 537.571 46.249 535.228 46.249C532.884 46.249 531.102 45.502 529.881 44.0078C528.67 42.5039 528.064 40.6045 528.064 38.3096ZM530.789 38.3096C530.789 40.3604 531.194 41.8789 532.005 42.8652C532.815 43.8516 533.89 44.3447 535.228 44.3447C536.565 44.3447 537.64 43.8516 538.45 42.8652C539.261 41.8789 539.666 40.3604 539.666 38.3096C539.666 36.2588 539.261 34.7402 538.45 33.7539C537.64 32.7676 536.565 32.2744 535.228 32.2744C533.89 32.2744 532.815 32.7676 532.005 33.7539C531.194 34.7402 530.789 36.2588 530.789 38.3096ZM546.375 51.8594C545.936 51.8594 545.716 51.6396 545.716 51.2002V31.2783C545.716 30.8389 545.936 30.6191 546.375 30.6191H547.605C547.957 30.6191 548.147 30.8389 548.177 31.2783L548.265 32.4502H548.294C548.831 31.8057 549.437 31.2979 550.11 30.9268C550.784 30.5557 551.683 30.3701 552.806 30.3701C554.759 30.3701 556.243 31.1709 557.259 32.7725C558.274 34.3643 558.782 36.21 558.782 38.3096C558.782 40.4092 558.274 42.2598 557.259 43.8613C556.243 45.4531 554.759 46.249 552.806 46.249C551.683 46.249 550.784 46.0635 550.11 45.6924C549.437 45.3213 548.831 44.8135 548.294 44.1689H548.265C548.284 44.4619 548.294 44.7598 548.294 45.0625V51.2002C548.294 51.6396 548.074 51.8594 547.635 51.8594H546.375ZM548.294 39.9941C548.294 41.459 548.641 42.5527 549.334 43.2754C550.037 43.9883 550.916 44.3447 551.971 44.3447C553.455 44.3447 554.505 43.7881 555.12 42.6748C555.745 41.5615 556.058 40.1064 556.058 38.3096C556.058 36.5127 555.745 35.0576 555.12 33.9443C554.505 32.8311 553.455 32.2744 551.971 32.2744C550.916 32.2744 550.037 32.6357 549.334 33.3584C548.641 34.0713 548.294 35.1602 548.294 36.625V39.9941ZM561.287 38.3096C561.287 35.8877 561.893 33.959 563.104 32.5234C564.314 31.0879 566.048 30.3701 568.304 30.3701C570.179 30.3701 571.731 31.0293 572.962 32.3477C574.202 33.6562 574.822 35.751 574.822 38.6318C574.822 39.0713 574.622 39.291 574.222 39.291H564.012C564.178 41.1758 564.686 42.4893 565.535 43.2314C566.385 43.9639 567.347 44.3301 568.421 44.3301C569.554 44.3301 570.423 44.1396 571.028 43.7588C571.634 43.3779 572.078 43.002 572.361 42.6309C572.674 42.2207 572.977 42.1426 573.27 42.3965L574.134 43.1436C574.358 43.3389 574.358 43.6074 574.134 43.9492C573.948 44.2324 573.416 44.6865 572.537 45.3115C571.668 45.9365 570.296 46.249 568.421 46.249C565.979 46.249 564.178 45.5312 563.016 44.0957C561.863 42.6602 561.287 40.7314 561.287 38.3096ZM563.953 37.3867H572.229C572.19 36.0195 571.839 34.8232 571.175 33.7979C570.511 32.7627 569.534 32.2451 568.245 32.2451C567.112 32.2451 566.15 32.626 565.359 33.3877C564.568 34.1396 564.1 35.4727 563.953 37.3867ZM578.865 46C578.426 46 578.206 45.7803 578.206 45.3408V31.2783C578.206 30.8389 578.426 30.6191 578.865 30.6191H580.096C580.535 30.6191 580.755 30.8389 580.755 31.2783V33.0361H580.813C581.282 32.1572 581.834 31.4932 582.469 31.0439C583.104 30.5947 583.895 30.3701 584.842 30.3701C585.467 30.3701 585.906 30.4238 586.16 30.5312C586.385 30.6191 586.468 30.7656 586.409 30.9707L586.072 32.1719C586.023 32.3477 585.896 32.416 585.691 32.377C585.35 32.3086 585.027 32.2744 584.725 32.2744C583.582 32.2744 582.64 32.792 581.897 33.8271C581.155 34.8525 580.784 36.2539 580.784 38.0312V45.3408C580.784 45.7803 580.564 46 580.125 46H578.865Z" fill="#2D9596"/>
</g>
<g filter="url(#filter4_d_38_74)">
<rect x="343.5" y="105.5" width="282" height="63" rx="9.5" stroke="#132E77" shape-rendering="crispEdges"/>
</g>
<g filter="url(#filter5_d_38_74)">
<path d="M386.5 136.987V124.8C386.5 124.263 386.744 123.994 387.232 123.994H388.58C389.068 123.994 389.312 124.263 389.312 124.8V136.548C389.312 139.282 389.698 141.069 390.47 141.909C391.251 142.739 392.521 143.154 394.278 143.154C396.036 143.154 397.301 142.739 398.072 141.909C398.854 141.069 399.244 139.282 399.244 136.548V124.8C399.244 124.263 399.488 123.994 399.977 123.994H401.324C401.812 123.994 402.057 124.263 402.057 124.8V136.987C402.057 140.083 401.344 142.266 399.918 143.535C398.502 144.805 396.622 145.439 394.278 145.439C391.935 145.439 390.05 144.805 388.624 143.535C387.208 142.266 386.5 140.083 386.5 136.987ZM406.363 145C405.729 145 405.641 144.678 406.1 144.033L413.131 134.16L406.598 124.961C406.139 124.316 406.227 123.994 406.861 123.994H408.663C409.093 123.994 409.435 124.185 409.688 124.565L414.83 132.212L419.972 124.565C420.226 124.185 420.567 123.994 420.997 123.994H422.799C423.434 123.994 423.521 124.316 423.062 124.961L416.529 134.16L423.561 144.033C424.02 144.678 423.932 145 423.297 145H421.48C421.051 145 420.709 144.81 420.455 144.429L414.83 136.108L409.205 144.429C408.951 144.81 408.609 145 408.18 145H406.363ZM424.659 137.925C424.22 137.925 424 137.754 424 137.412V136.387C424 136.045 424.22 135.874 424.659 135.874H431.661C432.101 135.874 432.32 136.045 432.32 136.387V137.412C432.32 137.754 432.101 137.925 431.661 137.925H424.659ZM436.363 145C435.875 145 435.631 144.731 435.631 144.194V124.8C435.631 124.263 435.875 123.994 436.363 123.994H443.438C446.261 123.994 448.302 124.521 449.562 125.576C450.831 126.631 451.466 128.022 451.466 129.751C451.466 131.274 450.953 132.554 449.928 133.589C448.912 134.624 447.462 135.22 445.577 135.376V135.405C446.573 136.147 447.232 136.714 447.555 137.104C447.877 137.485 448.238 138.003 448.639 138.657L451.949 144.033C452.35 144.678 452.262 145 451.686 145H450.016C449.557 145 449.215 144.81 448.99 144.429L445.943 139.199C445.504 138.447 444.874 137.71 444.054 136.987C443.233 136.265 442.213 135.903 440.992 135.903H438.443V144.194C438.443 144.731 438.199 145 437.711 145H436.363ZM438.443 133.501H442.677C444.581 133.501 446.046 133.252 447.071 132.754C448.097 132.246 448.609 131.187 448.609 129.575C448.609 128.345 448.141 127.51 447.203 127.07C446.266 126.621 444.991 126.396 443.38 126.396H438.443V133.501ZM454.806 137.31C454.806 134.888 455.411 132.959 456.622 131.523C457.833 130.088 459.566 129.37 461.822 129.37C463.697 129.37 465.25 130.029 466.48 131.348C467.721 132.656 468.341 134.751 468.341 137.632C468.341 138.071 468.141 138.291 467.74 138.291H457.53C457.696 140.176 458.204 141.489 459.054 142.231C459.903 142.964 460.865 143.33 461.939 143.33C463.072 143.33 463.941 143.14 464.547 142.759C465.152 142.378 465.597 142.002 465.88 141.631C466.192 141.221 466.495 141.143 466.788 141.396L467.652 142.144C467.877 142.339 467.877 142.607 467.652 142.949C467.467 143.232 466.935 143.687 466.056 144.312C465.187 144.937 463.814 145.249 461.939 145.249C459.498 145.249 457.696 144.531 456.534 143.096C455.382 141.66 454.806 139.731 454.806 137.31ZM457.472 136.387H465.748C465.709 135.02 465.357 133.823 464.693 132.798C464.029 131.763 463.053 131.245 461.764 131.245C460.631 131.245 459.669 131.626 458.878 132.388C458.087 133.14 457.618 134.473 457.472 136.387ZM471.124 143.564C470.821 143.281 470.758 143.018 470.934 142.773L471.593 141.851C471.808 141.558 472.125 141.572 472.545 141.895C473.121 142.334 473.761 142.686 474.464 142.949C475.177 143.213 475.987 143.345 476.896 143.345C477.433 143.345 477.911 143.281 478.331 143.154C478.751 143.018 479.117 142.769 479.43 142.407C479.752 142.046 479.913 141.562 479.913 140.957C479.913 140.605 479.835 140.273 479.679 139.961C479.532 139.648 479.298 139.399 478.976 139.214C478.663 139.019 478.355 138.867 478.053 138.76C477.555 138.574 477.057 138.423 476.559 138.306C476.07 138.179 475.426 137.988 474.625 137.734C474.088 137.568 473.58 137.334 473.102 137.031C472.623 136.719 472.203 136.299 471.842 135.771C471.49 135.244 471.314 134.517 471.314 133.589C471.314 132.642 471.603 131.826 472.179 131.143C472.755 130.459 473.478 129.995 474.347 129.751C475.216 129.497 476.061 129.37 476.881 129.37C478.092 129.37 479.063 129.512 479.796 129.795C480.538 130.068 481.178 130.396 481.715 130.776C482.027 131.001 482.071 131.26 481.847 131.553L481.188 132.432C480.982 132.715 480.665 132.705 480.235 132.402C479.874 132.148 479.361 131.909 478.697 131.685C478.033 131.46 477.452 131.348 476.954 131.348C476.339 131.348 475.812 131.416 475.372 131.553C474.933 131.689 474.576 131.924 474.303 132.256C474.029 132.588 473.893 132.979 473.893 133.428C473.893 133.77 473.946 134.077 474.054 134.351C474.161 134.614 474.361 134.858 474.654 135.083C474.947 135.308 475.357 135.488 475.885 135.625C476.705 135.84 477.452 136.035 478.126 136.211C478.81 136.387 479.425 136.602 479.972 136.855C480.685 137.188 481.231 137.554 481.612 137.954C482.003 138.354 482.271 138.789 482.418 139.258C482.564 139.717 482.638 140.229 482.638 140.796C482.638 141.841 482.325 142.725 481.7 143.447C481.085 144.17 480.396 144.653 479.635 144.897C478.873 145.132 477.955 145.249 476.881 145.249C475.426 145.249 474.176 145.044 473.131 144.634C472.096 144.214 471.427 143.857 471.124 143.564ZM484.718 137.31C484.718 134.888 485.323 132.959 486.534 131.523C487.745 130.088 489.479 129.37 491.734 129.37C493.609 129.37 495.162 130.029 496.393 131.348C497.633 132.656 498.253 134.751 498.253 137.632C498.253 138.071 498.053 138.291 497.652 138.291H487.442C487.608 140.176 488.116 141.489 488.966 142.231C489.815 142.964 490.777 143.33 491.852 143.33C492.984 143.33 493.854 143.14 494.459 142.759C495.064 142.378 495.509 142.002 495.792 141.631C496.104 141.221 496.407 141.143 496.7 141.396L497.564 142.144C497.789 142.339 497.789 142.607 497.564 142.949C497.379 143.232 496.847 143.687 495.968 144.312C495.099 144.937 493.727 145.249 491.852 145.249C489.41 145.249 487.608 144.531 486.446 143.096C485.294 141.66 484.718 139.731 484.718 137.31ZM487.384 136.387H495.66C495.621 135.02 495.27 133.823 494.605 132.798C493.941 131.763 492.965 131.245 491.676 131.245C490.543 131.245 489.581 131.626 488.79 132.388C487.999 133.14 487.53 134.473 487.384 136.387ZM500.802 140.898C500.802 139.16 501.612 137.886 503.233 137.075C504.864 136.265 507.296 135.791 510.528 135.654V134.658C510.528 133.74 510.318 132.949 509.898 132.285C509.488 131.611 508.668 131.274 507.438 131.274C506.656 131.274 506.031 131.353 505.562 131.509C505.094 131.655 504.664 131.855 504.273 132.109C503.893 132.354 503.526 132.671 503.175 133.062C502.911 133.354 502.662 133.369 502.428 133.105L501.666 132.227C501.451 131.982 501.524 131.689 501.886 131.348C502.403 130.859 502.906 130.493 503.395 130.249C503.883 130.005 504.488 129.8 505.211 129.634C505.943 129.458 506.686 129.37 507.438 129.37C509.479 129.37 510.934 129.897 511.803 130.952C512.672 131.997 513.106 133.433 513.106 135.259V144.341C513.106 144.78 512.887 145 512.447 145H511.129C510.748 145 510.558 144.78 510.558 144.341V143.623H510.528C509.757 144.229 509 144.653 508.258 144.897C507.525 145.132 506.705 145.249 505.797 145.249C504.195 145.249 502.96 144.868 502.091 144.106C501.231 143.335 500.802 142.266 500.802 140.898ZM503.468 140.957C503.468 141.562 503.595 142.051 503.849 142.422C504.103 142.783 504.454 143.018 504.903 143.125C505.353 143.223 505.821 143.271 506.31 143.271C507.062 143.271 507.774 143.198 508.448 143.052C509.122 142.905 509.815 142.52 510.528 141.895V137.573C508.556 137.72 507.149 137.9 506.31 138.115C505.47 138.32 504.786 138.682 504.259 139.199C503.731 139.707 503.468 140.293 503.468 140.957ZM517.94 145C517.501 145 517.281 144.78 517.281 144.341V130.278C517.281 129.839 517.501 129.619 517.94 129.619H519.171C519.61 129.619 519.83 129.839 519.83 130.278V132.036H519.889C520.357 131.157 520.909 130.493 521.544 130.044C522.179 129.595 522.97 129.37 523.917 129.37C524.542 129.37 524.981 129.424 525.235 129.531C525.46 129.619 525.543 129.766 525.484 129.971L525.147 131.172C525.099 131.348 524.972 131.416 524.767 131.377C524.425 131.309 524.103 131.274 523.8 131.274C522.657 131.274 521.715 131.792 520.973 132.827C520.23 133.853 519.859 135.254 519.859 137.031V144.341C519.859 144.78 519.64 145 519.2 145H517.94ZM527.022 137.31C527.022 135.015 527.589 133.12 528.722 131.626C529.864 130.122 531.607 129.37 533.951 129.37C535.533 129.37 536.739 129.653 537.569 130.22C538.409 130.776 539.015 131.348 539.386 131.934C539.591 132.256 539.547 132.515 539.254 132.71L538.331 133.311C538.038 133.516 537.745 133.384 537.452 132.915C537.169 132.466 536.769 132.08 536.251 131.758C535.743 131.436 534.977 131.274 533.951 131.274C532.613 131.274 531.578 131.768 530.846 132.754C530.113 133.74 529.747 135.259 529.747 137.31C529.747 139.36 530.113 140.879 530.846 141.865C531.578 142.852 532.613 143.345 533.951 143.345C535.035 143.345 535.865 143.14 536.441 142.729C537.018 142.31 537.438 141.855 537.701 141.367C537.955 140.908 538.243 140.776 538.565 140.972L539.547 141.558C539.84 141.733 539.884 141.997 539.679 142.349C539.435 142.769 538.878 143.359 538.009 144.121C537.149 144.873 535.797 145.249 533.951 145.249C531.607 145.249 529.864 144.502 528.722 143.008C527.589 141.504 527.022 139.604 527.022 137.31ZM543.546 145C543.106 145 542.887 144.78 542.887 144.341V124.038C542.887 123.599 543.106 123.379 543.546 123.379H544.806C545.245 123.379 545.465 123.599 545.465 124.038V130.571C545.465 130.864 545.455 131.157 545.436 131.45H545.494C546.129 130.747 546.812 130.225 547.545 129.883C548.277 129.541 549.19 129.37 550.284 129.37C552.062 129.37 553.336 129.873 554.107 130.879C554.889 131.875 555.279 133.242 555.279 134.98V144.341C555.279 144.78 555.06 145 554.62 145H553.36C552.921 145 552.701 144.78 552.701 144.341V135.684C552.701 133.77 552.384 132.559 551.749 132.051C551.114 131.533 550.309 131.274 549.332 131.274C548.062 131.274 547.101 131.655 546.446 132.417C545.792 133.169 545.465 134.463 545.465 136.299V144.341C545.465 144.78 545.245 145 544.806 145H543.546ZM558.575 137.31C558.575 134.888 559.181 132.959 560.392 131.523C561.603 130.088 563.336 129.37 565.592 129.37C567.467 129.37 569.02 130.029 570.25 131.348C571.49 132.656 572.11 134.751 572.11 137.632C572.11 138.071 571.91 138.291 571.51 138.291H561.3C561.466 140.176 561.974 141.489 562.823 142.231C563.673 142.964 564.635 143.33 565.709 143.33C566.842 143.33 567.711 143.14 568.316 142.759C568.922 142.378 569.366 142.002 569.649 141.631C569.962 141.221 570.265 141.143 570.558 141.396L571.422 142.144C571.646 142.339 571.646 142.607 571.422 142.949C571.236 143.232 570.704 143.687 569.825 144.312C568.956 144.937 567.584 145.249 565.709 145.249C563.268 145.249 561.466 144.531 560.304 143.096C559.151 141.66 558.575 139.731 558.575 137.31ZM561.241 136.387H569.518C569.479 135.02 569.127 133.823 568.463 132.798C567.799 131.763 566.822 131.245 565.533 131.245C564.4 131.245 563.438 131.626 562.647 132.388C561.856 133.14 561.388 134.473 561.241 136.387ZM576.153 145C575.714 145 575.494 144.78 575.494 144.341V130.278C575.494 129.839 575.714 129.619 576.153 129.619H577.384C577.823 129.619 578.043 129.839 578.043 130.278V132.036H578.102C578.57 131.157 579.122 130.493 579.757 130.044C580.392 129.595 581.183 129.37 582.13 129.37C582.755 129.37 583.194 129.424 583.448 129.531C583.673 129.619 583.756 129.766 583.697 129.971L583.36 131.172C583.312 131.348 583.185 131.416 582.979 131.377C582.638 131.309 582.315 131.274 582.013 131.274C580.87 131.274 579.928 131.792 579.186 132.827C578.443 133.853 578.072 135.254 578.072 137.031V144.341C578.072 144.78 577.853 145 577.413 145H576.153Z" fill="#2D9596"/>
</g>
<g filter="url(#filter6_d_38_74)">
<path d="M32.3408 145C31.8525 145 31.6084 144.731 31.6084 144.194V124.8C31.6084 124.263 31.8525 123.994 32.3408 123.994H38.4932C41.8135 123.994 44.0547 124.556 45.2168 125.679C46.3789 126.792 46.96 128.325 46.96 130.278C46.96 132.231 46.3789 133.77 45.2168 134.893C44.0547 136.006 41.8135 136.562 38.4932 136.562H34.4209V144.194C34.4209 144.731 34.1768 145 33.6885 145H32.3408ZM34.4209 134.16H38.5371C40.6855 134.16 42.1504 133.857 42.9316 133.252C43.7129 132.637 44.1035 131.646 44.1035 130.278C44.1035 128.911 43.7129 127.925 42.9316 127.319C42.1504 126.704 40.6855 126.396 38.5371 126.396H34.4209V134.16ZM51.0176 145C50.5781 145 50.3584 144.78 50.3584 144.341V130.278C50.3584 129.839 50.5781 129.619 51.0176 129.619H52.248C52.6875 129.619 52.9072 129.839 52.9072 130.278V132.036H52.9658C53.4346 131.157 53.9863 130.493 54.6211 130.044C55.2559 129.595 56.0469 129.37 56.9941 129.37C57.6191 129.37 58.0586 129.424 58.3125 129.531C58.5371 129.619 58.6201 129.766 58.5615 129.971L58.2246 131.172C58.1758 131.348 58.0488 131.416 57.8438 131.377C57.502 131.309 57.1797 131.274 56.877 131.274C55.7344 131.274 54.792 131.792 54.0498 132.827C53.3076 133.853 52.9365 135.254 52.9365 137.031V144.341C52.9365 144.78 52.7168 145 52.2773 145H51.0176ZM60.0996 137.31C60.0996 135.015 60.7051 133.12 61.916 131.626C63.1367 130.122 64.9189 129.37 67.2627 129.37C69.6064 129.37 71.3838 130.122 72.5947 131.626C73.8154 133.12 74.4258 135.015 74.4258 137.31C74.4258 139.604 73.8154 141.504 72.5947 143.008C71.3838 144.502 69.6064 145.249 67.2627 145.249C64.9189 145.249 63.1367 144.502 61.916 143.008C60.7051 141.504 60.0996 139.604 60.0996 137.31ZM62.8242 137.31C62.8242 139.36 63.2295 140.879 64.04 141.865C64.8506 142.852 65.9248 143.345 67.2627 143.345C68.6006 143.345 69.6748 142.852 70.4854 141.865C71.2959 140.879 71.7012 139.36 71.7012 137.31C71.7012 135.259 71.2959 133.74 70.4854 132.754C69.6748 131.768 68.6006 131.274 67.2627 131.274C65.9248 131.274 64.8506 131.768 64.04 132.754C63.2295 133.74 62.8242 135.259 62.8242 137.31ZM76.916 137.31C76.916 135.21 77.4238 133.364 78.4395 131.772C79.4551 130.171 80.9395 129.37 82.8926 129.37C84.0156 129.37 84.9141 129.556 85.5879 129.927C86.2617 130.298 86.8672 130.806 87.4043 131.45H87.4336C87.4141 131.157 87.4043 130.859 87.4043 130.557V124.038C87.4043 123.599 87.624 123.379 88.0635 123.379H89.3232C89.7627 123.379 89.9824 123.599 89.9824 124.038V144.341C89.9824 144.78 89.7627 145 89.3232 145H88.0928C87.7412 145 87.5508 144.78 87.5215 144.341L87.4336 143.169H87.4043C86.8672 143.813 86.2617 144.321 85.5879 144.692C84.9141 145.063 84.0156 145.249 82.8926 145.249C80.9395 145.249 79.4551 144.453 78.4395 142.861C77.4238 141.26 76.916 139.409 76.916 137.31ZM79.6406 137.31C79.6406 139.106 79.9482 140.562 80.5635 141.675C81.1885 142.788 82.2432 143.345 83.7275 143.345C84.7822 143.345 85.6562 142.988 86.3496 142.275C87.0527 141.553 87.4043 140.459 87.4043 138.994V135.625C87.4043 134.16 87.0527 133.071 86.3496 132.358C85.6562 131.636 84.7822 131.274 83.7275 131.274C82.2432 131.274 81.1885 131.831 80.5635 132.944C79.9482 134.058 79.6406 135.513 79.6406 137.31ZM94.1279 139.639V130.278C94.1279 129.839 94.3477 129.619 94.7871 129.619H96.0469C96.4863 129.619 96.7061 129.839 96.7061 130.278V138.936C96.7061 140.85 97.0234 142.065 97.6582 142.583C98.293 143.091 99.0791 143.345 100.017 143.345C101.247 143.345 102.189 142.969 102.844 142.217C103.498 141.455 103.825 140.156 103.825 138.32V130.278C103.825 129.839 104.045 129.619 104.484 129.619H105.744C106.184 129.619 106.403 129.839 106.403 130.278V144.341C106.403 144.78 106.184 145 105.744 145H104.514C104.074 145 103.854 144.78 103.854 144.341V143.169H103.796C103.161 143.872 102.478 144.395 101.745 144.736C101.013 145.078 100.119 145.249 99.0645 145.249C97.3555 145.249 96.1055 144.751 95.3145 143.755C94.5234 142.749 94.1279 141.377 94.1279 139.639ZM109.729 137.31C109.729 135.015 110.295 133.12 111.428 131.626C112.57 130.122 114.313 129.37 116.657 129.37C118.239 129.37 119.445 129.653 120.275 130.22C121.115 130.776 121.721 131.348 122.092 131.934C122.297 132.256 122.253 132.515 121.96 132.71L121.037 133.311C120.744 133.516 120.451 133.384 120.158 132.915C119.875 132.466 119.475 132.08 118.957 131.758C118.449 131.436 117.683 131.274 116.657 131.274C115.319 131.274 114.284 131.768 113.552 132.754C112.819 133.74 112.453 135.259 112.453 137.31C112.453 139.36 112.819 140.879 113.552 141.865C114.284 142.852 115.319 143.345 116.657 143.345C117.741 143.345 118.571 143.14 119.147 142.729C119.724 142.31 120.144 141.855 120.407 141.367C120.661 140.908 120.949 140.776 121.271 140.972L122.253 141.558C122.546 141.733 122.59 141.997 122.385 142.349C122.141 142.769 121.584 143.359 120.715 144.121C119.855 144.873 118.503 145.249 116.657 145.249C114.313 145.249 112.57 144.502 111.428 143.008C110.295 141.504 109.729 139.604 109.729 137.31ZM124.846 131.553C124.406 131.553 124.187 131.382 124.187 131.04V130.132C124.187 129.79 124.406 129.619 124.846 129.619H126.574V128.301C126.574 128.105 126.623 127.92 126.721 127.744L127.746 125.884C127.932 125.542 128.083 125.371 128.2 125.371H128.713C129.006 125.371 129.152 125.542 129.152 125.884V129.619H132.272C132.712 129.619 132.932 129.79 132.932 130.132V131.04C132.932 131.382 132.712 131.553 132.272 131.553H129.152V140.884C129.152 141.909 129.304 142.578 129.606 142.891C129.919 143.193 130.29 143.345 130.72 143.345C131.052 143.345 131.447 143.247 131.906 143.052C132.375 142.856 132.697 142.69 132.873 142.554C133.049 142.417 133.186 142.461 133.283 142.686L133.767 143.813C133.845 144.009 133.786 144.165 133.591 144.282C133.21 144.507 132.653 144.727 131.921 144.941C131.188 145.146 130.456 145.249 129.724 145.249C128.708 145.249 127.927 144.883 127.38 144.15C126.843 143.418 126.574 142.383 126.574 141.045V131.553H124.846ZM147.829 145C147.341 145 147.097 144.731 147.097 144.194V124.8C147.097 124.263 147.341 123.994 147.829 123.994H153.234C157.375 123.994 160.251 124.912 161.862 126.748C163.483 128.574 164.294 131.147 164.294 134.468C164.294 137.788 163.483 140.376 161.862 142.231C160.251 144.077 157.375 145 153.234 145H147.829ZM149.909 142.598H153.103C156.325 142.598 158.493 141.914 159.606 140.547C160.729 139.18 161.291 137.153 161.291 134.468C161.291 131.782 160.729 129.761 159.606 128.403C158.493 127.046 156.325 126.367 153.103 126.367H149.909V142.598ZM166.887 137.31C166.887 134.888 167.492 132.959 168.703 131.523C169.914 130.088 171.647 129.37 173.903 129.37C175.778 129.37 177.331 130.029 178.562 131.348C179.802 132.656 180.422 134.751 180.422 137.632C180.422 138.071 180.222 138.291 179.821 138.291H169.611C169.777 140.176 170.285 141.489 171.135 142.231C171.984 142.964 172.946 143.33 174.021 143.33C175.153 143.33 176.022 143.14 176.628 142.759C177.233 142.378 177.678 142.002 177.961 141.631C178.273 141.221 178.576 141.143 178.869 141.396L179.733 142.144C179.958 142.339 179.958 142.607 179.733 142.949C179.548 143.232 179.016 143.687 178.137 144.312C177.268 144.937 175.896 145.249 174.021 145.249C171.579 145.249 169.777 144.531 168.615 143.096C167.463 141.66 166.887 139.731 166.887 137.31ZM169.553 136.387H177.829C177.79 135.02 177.438 133.823 176.774 132.798C176.11 131.763 175.134 131.245 173.845 131.245C172.712 131.245 171.75 131.626 170.959 132.388C170.168 133.14 169.699 134.473 169.553 136.387ZM183.205 143.564C182.902 143.281 182.839 143.018 183.015 142.773L183.674 141.851C183.889 141.558 184.206 141.572 184.626 141.895C185.202 142.334 185.842 142.686 186.545 142.949C187.258 143.213 188.068 143.345 188.977 143.345C189.514 143.345 189.992 143.281 190.412 143.154C190.832 143.018 191.198 142.769 191.511 142.407C191.833 142.046 191.994 141.562 191.994 140.957C191.994 140.605 191.916 140.273 191.76 139.961C191.613 139.648 191.379 139.399 191.057 139.214C190.744 139.019 190.437 138.867 190.134 138.76C189.636 138.574 189.138 138.423 188.64 138.306C188.151 138.179 187.507 137.988 186.706 137.734C186.169 137.568 185.661 137.334 185.183 137.031C184.704 136.719 184.284 136.299 183.923 135.771C183.571 135.244 183.396 134.517 183.396 133.589C183.396 132.642 183.684 131.826 184.26 131.143C184.836 130.459 185.559 129.995 186.428 129.751C187.297 129.497 188.142 129.37 188.962 129.37C190.173 129.37 191.145 129.512 191.877 129.795C192.619 130.068 193.259 130.396 193.796 130.776C194.108 131.001 194.152 131.26 193.928 131.553L193.269 132.432C193.063 132.715 192.746 132.705 192.316 132.402C191.955 132.148 191.442 131.909 190.778 131.685C190.114 131.46 189.533 131.348 189.035 131.348C188.42 131.348 187.893 131.416 187.453 131.553C187.014 131.689 186.657 131.924 186.384 132.256C186.11 132.588 185.974 132.979 185.974 133.428C185.974 133.77 186.027 134.077 186.135 134.351C186.242 134.614 186.442 134.858 186.735 135.083C187.028 135.308 187.438 135.488 187.966 135.625C188.786 135.84 189.533 136.035 190.207 136.211C190.891 136.387 191.506 136.602 192.053 136.855C192.766 137.188 193.312 137.554 193.693 137.954C194.084 138.354 194.353 138.789 194.499 139.258C194.646 139.717 194.719 140.229 194.719 140.796C194.719 141.841 194.406 142.725 193.781 143.447C193.166 144.17 192.478 144.653 191.716 144.897C190.954 145.132 190.036 145.249 188.962 145.249C187.507 145.249 186.257 145.044 185.212 144.634C184.177 144.214 183.508 143.857 183.205 143.564ZM198.293 145C197.854 145 197.634 144.78 197.634 144.341V130.278C197.634 129.839 197.854 129.619 198.293 129.619H199.553C199.992 129.619 200.212 129.839 200.212 130.278V144.341C200.212 144.78 199.992 145 199.553 145H198.293ZM198.293 126.836C197.854 126.836 197.634 126.616 197.634 126.177V124.917C197.634 124.478 197.854 124.258 198.293 124.258H199.553C199.992 124.258 200.212 124.478 200.212 124.917V126.177C200.212 126.616 199.992 126.836 199.553 126.836H198.293ZM203.537 137.31C203.537 135.21 204.045 133.364 205.061 131.772C206.076 130.171 207.561 129.37 209.514 129.37C210.637 129.37 211.535 129.556 212.209 129.927C212.883 130.298 213.488 130.806 214.025 131.45H214.055L214.143 130.278C214.172 129.839 214.362 129.619 214.714 129.619H215.944C216.384 129.619 216.604 129.839 216.604 130.278V145.117C216.604 146.992 216.169 148.457 215.3 149.512C214.44 150.576 212.736 151.108 210.188 151.108C208.479 151.108 207.199 150.913 206.35 150.522C205.5 150.142 204.895 149.736 204.533 149.307C204.27 148.984 204.255 148.711 204.489 148.486L205.295 147.695C205.52 147.48 205.832 147.549 206.232 147.9C206.75 148.369 207.248 148.701 207.727 148.896C208.205 149.102 209.03 149.204 210.202 149.204C211.53 149.204 212.497 148.921 213.103 148.354C213.718 147.788 214.025 146.616 214.025 144.839V143.96C214.025 143.657 214.035 143.359 214.055 143.066H214.025C213.518 143.74 212.917 144.272 212.224 144.663C211.54 145.054 210.637 145.249 209.514 145.249C207.561 145.249 206.076 144.453 205.061 142.861C204.045 141.26 203.537 139.409 203.537 137.31ZM206.262 137.31C206.262 139.106 206.569 140.562 207.185 141.675C207.81 142.788 208.864 143.345 210.349 143.345C211.403 143.345 212.277 142.988 212.971 142.275C213.674 141.553 214.025 140.459 214.025 138.994V135.625C214.025 134.16 213.674 133.071 212.971 132.358C212.277 131.636 211.403 131.274 210.349 131.274C208.864 131.274 207.81 131.831 207.185 132.944C206.569 134.058 206.262 135.513 206.262 137.31ZM221.438 145C220.998 145 220.778 144.78 220.778 144.341V130.278C220.778 129.839 220.998 129.619 221.438 129.619H222.668C223.107 129.619 223.327 129.839 223.327 130.278V131.45H223.386C224.021 130.747 224.704 130.225 225.437 129.883C226.169 129.541 227.082 129.37 228.176 129.37C229.953 129.37 231.228 129.873 231.999 130.879C232.78 131.875 233.171 133.242 233.171 134.98V144.341C233.171 144.78 232.951 145 232.512 145H231.252C230.812 145 230.593 144.78 230.593 144.341V135.684C230.593 133.77 230.275 132.559 229.641 132.051C229.006 131.533 228.2 131.274 227.224 131.274C225.954 131.274 224.992 131.655 224.338 132.417C223.684 133.169 223.356 134.463 223.356 136.299V144.341C223.356 144.78 223.137 145 222.697 145H221.438ZM236.467 137.31C236.467 134.888 237.072 132.959 238.283 131.523C239.494 130.088 241.228 129.37 243.483 129.37C245.358 129.37 246.911 130.029 248.142 131.348C249.382 132.656 250.002 134.751 250.002 137.632C250.002 138.071 249.802 138.291 249.401 138.291H239.191C239.357 140.176 239.865 141.489 240.715 142.231C241.564 142.964 242.526 143.33 243.601 143.33C244.733 143.33 245.603 143.14 246.208 142.759C246.813 142.378 247.258 142.002 247.541 141.631C247.854 141.221 248.156 141.143 248.449 141.396L249.313 142.144C249.538 142.339 249.538 142.607 249.313 142.949C249.128 143.232 248.596 143.687 247.717 144.312C246.848 144.937 245.476 145.249 243.601 145.249C241.159 145.249 239.357 144.531 238.195 143.096C237.043 141.66 236.467 139.731 236.467 137.31ZM239.133 136.387H247.409C247.37 135.02 247.019 133.823 246.354 132.798C245.69 131.763 244.714 131.245 243.425 131.245C242.292 131.245 241.33 131.626 240.539 132.388C239.748 133.14 239.279 134.473 239.133 136.387ZM254.045 145C253.605 145 253.386 144.78 253.386 144.341V130.278C253.386 129.839 253.605 129.619 254.045 129.619H255.275C255.715 129.619 255.935 129.839 255.935 130.278V132.036H255.993C256.462 131.157 257.014 130.493 257.648 130.044C258.283 129.595 259.074 129.37 260.021 129.37C260.646 129.37 261.086 129.424 261.34 129.531C261.564 129.619 261.647 129.766 261.589 129.971L261.252 131.172C261.203 131.348 261.076 131.416 260.871 131.377C260.529 131.309 260.207 131.274 259.904 131.274C258.762 131.274 257.819 131.792 257.077 132.827C256.335 133.853 255.964 135.254 255.964 137.031V144.341C255.964 144.78 255.744 145 255.305 145H254.045Z" fill="#2D9596"/>
</g>
<g filter="url(#filter7_d_38_74)">
<rect x="4.5" y="105.5" width="282" height="63" rx="9.5" stroke="#132E77" shape-rendering="crispEdges"/>
</g>
<defs>
<filter id="filter0_d_38_74" x="-4" y="0" width="299" height="80" filterUnits="userSpaceOnUse" color-interpolation-filters="sRGB">
<feFlood flood-opacity="0" result="BackgroundImageFix"/>
<feColorMatrix in="SourceAlpha" type="matrix" values="0 0 0 0 0 0 0 0 0 0 0 0 0 0 0 0 0 0 127 0" result="hardAlpha"/>
<feOffset dy="2"/>
<feGaussianBlur stdDeviation="4"/>
<feComposite in2="hardAlpha" operator="out"/>
<feColorMatrix type="matrix" values="0 0 0 0 0.0745098 0 0 0 0 0.180392 0 0 0 0 0.466667 0 0 0 1 0"/>
<feBlend mode="normal" in2="BackgroundImageFix" result="effect1_dropShadow_38_74"/>
<feBlend mode="normal" in="SourceGraphic" in2="effect1_dropShadow_38_74" result="shape"/>
</filter>
<filter id="filter1_d_38_74" x="40.834" y="24.9941" width="210.617" height="35.1143" filterUnits="userSpaceOnUse" color-interpolation-filters="sRGB">
<feFlood flood-opacity="0" result="BackgroundImageFix"/>
<feColorMatrix in="SourceAlpha" type="matrix" values="0 0 0 0 0 0 0 0 0 0 0 0 0 0 0 0 0 0 127 0" result="hardAlpha"/>
<feOffset dy="4"/>
<feGaussianBlur stdDeviation="2"/>
<feComposite in2="hardAlpha" operator="out"/>
<feColorMatrix type="matrix" values="0 0 0 0 0 0 0 0 0 0 0 0 0 0 0 0 0 0 0.25 0"/>
<feBlend mode="normal" in2="BackgroundImageFix" result="effect1_dropShadow_38_74"/>
<feBlend mode="normal" in="SourceGraphic" in2="effect1_dropShadow_38_74" result="shape"/>
</filter>
<filter id="filter2_d_38_74" x="336" y="1" width="299" height="80" filterUnits="userSpaceOnUse" color-interpolation-filters="sRGB">
<feFlood flood-opacity="0" result="BackgroundImageFix"/>
<feColorMatrix in="SourceAlpha" type="matrix" values="0 0 0 0 0 0 0 0 0 0 0 0 0 0 0 0 0 0 127 0" result="hardAlpha"/>
<feOffset dx="1" dy="4"/>
<feGaussianBlur stdDeviation="4"/>
<feComposite in2="hardAlpha" operator="out"/>
<feColorMatrix type="matrix" values="0 0 0 0 0.0745098 0 0 0 0 0.180392 0 0 0 0 0.466667 0 0 0 1 0"/>
<feBlend mode="normal" in2="BackgroundImageFix" result="effect1_dropShadow_38_74"/>
<feBlend mode="normal" in="SourceGraphic" in2="effect1_dropShadow_38_74" result="shape"/>
</filter>
<filter id="filter3_d_38_74" x="379.001" y="24.1299" width="211.496" height="35.7295" filterUnits="userSpaceOnUse" color-interpolation-filters="sRGB">
<feFlood flood-opacity="0" result="BackgroundImageFix"/>
<feColorMatrix in="SourceAlpha" type="matrix" values="0 0 0 0 0 0 0 0 0 0 0 0 0 0 0 0 0 0 127 0" result="hardAlpha"/>
<feOffset dy="4"/>
<feGaussianBlur stdDeviation="2"/>
<feComposite in2="hardAlpha" operator="out"/>
<feColorMatrix type="matrix" values="0 0 0 0 0 0 0 0 0 0 0 0 0 0 0 0 0 0 0.25 0"/>
<feBlend mode="normal" in2="BackgroundImageFix" result="effect1_dropShadow_38_74"/>
<feBlend mode="normal" in="SourceGraphic" in2="effect1_dropShadow_38_74" result="shape"/>
</filter>
<filter id="filter4_d_38_74" x="336" y="101" width="299" height="80" filterUnits="userSpaceOnUse" color-interpolation-filters="sRGB">
<feFlood flood-opacity="0" result="BackgroundImageFix"/>
<feColorMatrix in="SourceAlpha" type="matrix" values="0 0 0 0 0 0 0 0 0 0 0 0 0 0 0 0 0 0 127 0" result="hardAlpha"/>
<feOffset dx="1" dy="4"/>
<feGaussianBlur stdDeviation="4"/>
<feComposite in2="hardAlpha" operator="out"/>
<feColorMatrix type="matrix" values="0 0 0 0 0.0745098 0 0 0 0 0.180392 0 0 0 0 0.466667 0 0 0 1 0"/>
<feBlend mode="normal" in2="BackgroundImageFix" result="effect1_dropShadow_38_74"/>
<feBlend mode="normal" in="SourceGraphic" in2="effect1_dropShadow_38_74" result="shape"/>
</filter>
<filter id="filter5_d_38_74" x="382.5" y="123.379" width="205.285" height="30.0605" filterUnits="userSpaceOnUse" color-interpolation-filters="sRGB">
<feFlood flood-opacity="0" result="BackgroundImageFix"/>
<feColorMatrix in="SourceAlpha" type="matrix" values="0 0 0 0 0 0 0 0 0 0 0 0 0 0 0 0 0 0 127 0" result="hardAlpha"/>
<feOffset dy="4"/>
<feGaussianBlur stdDeviation="2"/>
<feComposite in2="hardAlpha" operator="out"/>
<feColorMatrix type="matrix" values="0 0 0 0 0 0 0 0 0 0 0 0 0 0 0 0 0 0 0.25 0"/>
<feBlend mode="normal" in2="BackgroundImageFix" result="effect1_dropShadow_38_74"/>
<feBlend mode="normal" in="SourceGraphic" in2="effect1_dropShadow_38_74" result="shape"/>
</filter>
<filter id="filter6_d_38_74" x="27.6084" y="123.379" width="238.068" height="35.7295" filterUnits="userSpaceOnUse" color-interpolation-filters="sRGB">
<feFlood flood-opacity="0" result="BackgroundImageFix"/>
<feColorMatrix in="SourceAlpha" type="matrix" values="0 0 0 0 0 0 0 0 0 0 0 0 0 0 0 0 0 0 127 0" result="hardAlpha"/>
<feOffset dy="4"/>
<feGaussianBlur stdDeviation="2"/>
<feComposite in2="hardAlpha" operator="out"/>
<feColorMatrix type="matrix" values="0 0 0 0 0 0 0 0 0 0 0 0 0 0 0 0 0 0 0.25 0"/>
<feBlend mode="normal" in2="BackgroundImageFix" result="effect1_dropShadow_38_74"/>
<feBlend mode="normal" in="SourceGraphic" in2="effect1_dropShadow_38_74" result="shape"/>
</filter>
<filter id="filter7_d_38_74" x="-4" y="99" width="299" height="80" filterUnits="userSpaceOnUse" color-interpolation-filters="sRGB">
<feFlood flood-opacity="0" result="BackgroundImageFix"/>
<feColorMatrix in="SourceAlpha" type="matrix" values="0 0 0 0 0 0 0 0 0 0 0 0 0 0 0 0 0 0 127 0" result="hardAlpha"/>
<feOffset dy="2"/>
<feGaussianBlur stdDeviation="4"/>
<feComposite in2="hardAlpha" operator="out"/>
<feColorMatrix type="matrix" values="0 0 0 0 0.0745098 0 0 0 0 0.180392 0 0 0 0 0.466667 0 0 0 1 0"/>
<feBlend mode="normal" in2="BackgroundImageFix" result="effect1_dropShadow_38_74"/>
<feBlend mode="normal" in="SourceGraphic" in2="effect1_dropShadow_38_74" result="shape"/>
</filter>
</defs>
</svg>
